# xmcd
#
# Track frame offsets:
#	150
#	19380
#	36419
#	62067
#	76501
#	108960
#
# Disc length: 1680 seconds
#
# Revision: 0
# Processed by: cddbd v1.5.2PL0 Copyright (c) Steve Scherf et al.
# Submitted via: audiograbber 1.83.01
#
DISCID=42068e06
DTITLE=John Fowler - John Fowler and Harpoon - Live
DYEAR=1980
DGENRE=Christian Rock
TTITLE0=B.C. Blues
TTITLE1=You Only Go 'Round Once
TTITLE2=51st Street Blues
TTITLE3=Lookin' Back
TTITLE4=Faithful
TTITLE5=Liar!
EXTD=
EXTT0=
EXTT1=
EXTT2=
EXTT3=
EXTT4=
EXTT5=
PLAYORDER=
